<svg viewBox="0 0 24 24"><path d="M19.63 14.66l-.852 1.352a2.5 2.5 0 0 0-.275-.016 2.5 2.5 0 0 0-1.031.225L16.245 15.2a4 4 0 0 0-1.043 1.037 4 4 0 0 0 0 .002l1.025 1.229a2.5 2.5 0 0 0-.225 1.029 2.5 2.5 0 0 0 .018.275l-1.352.852a4 4 0 0 0 .668 1.312l1.484-.594a2.5 2.5 0 0 0 1.178.602l.39 1.547a4 4 0 0 0 .114.006 4 4 0 0 0 1.342-.237l-.106-1.594a2.5 2.5 0 0 0 .934-.933l1.594.105a4 4 0 0 0 .236-1.342 4 4 0 0 0-.004-.111l-1.55-.393a2.5 2.5 0 0 0-.6-1.18l.592-1.48a4 4 0 0 0-1.311-.672zm-1.127 2.836a1 1 0 0 1 1 1 1 1 0 0 1-1 1 1 1 0 0 1-1-1 1 1 0 0 1 1-1z"/><path d="M10.88 1.043l-.387 1.482a7.5 7.5 0 0 0-.492-.025 7.5 7.5 0 0 0-1.393.134l-.557-1.41a9 9 0 0 0-1.433.442l.345 1.486a7.5 7.5 0 0 0-1.62.97l-1.147-.988A9 9 0 0 0 3.13 4.19l.998 1.158A7.5 7.5 0 0 0 3.15 6.96l-1.482-.344a9 9 0 0 0-.446 1.432l1.414.559A7.5 7.5 0 0 0 2.502 10a7.5 7.5 0 0 0 .017.494l-1.465.383a9 9 0 0 0 .264 1.477l1.518-.164a7.5 7.5 0 0 0 .773 1.72l-1.127 1.028a9 9 0 0 0 .57.77l3.21-3.21A4.5 4.5 0 0 1 5.502 10a4.5 4.5 0 0 1 4.5-4.5 4.5 4.5 0 0 1 2.498.76l3.199-3.199a9 9 0 0 0-.762-.578L13.91 3.61a7.5 7.5 0 0 0-1.717-.78l.162-1.505a9 9 0 0 0-1.475-.281zm7.65 8.686L9.729 18.53l.063.46A9 9 0 0 0 10 19a9 9 0 0 0 1.289-.1l.021-1.517a7.5 7.5 0 0 0 1.799-.568l.885 1.246a9 9 0 0 0 1.283-.784l-.686-1.352a7.5 7.5 0 0 0 1.328-1.338l1.36.69a9 9 0 0 0 .775-1.287l-1.238-.879a7.5 7.5 0 0 0 .56-1.8l1.52-.022a9 9 0 0 0 .104-1.29 9 9 0 0 0-.008-.208l-.463-.063z"/><g><path d="M16.1 4.036L4.11 16.046l3.33 3.339 12-12.02zm.68-.643l1.67 1.663 1.67 1.666 1.763-1.755c.417-.416.346-.924-.003-1.251l-2.083-2.078c-.327-.348-.837-.414-1.253.002zM3.4 16.773L2.381 17.79l-.877 4.213 4.217-.884 1.007-1.008z"/></g></svg>